<svg width="2320" height="395" viewBox="0 0 2320 395" fill="none" xmlns="http://www.w3.org/2000/svg">
<path d="M98.1172 38C148.451 38 186.951 47.1666 213.617 65.5C240.617 83.8333 254.117 112.5 254.117 151.5C254.117 171.833 250.451 189.333 243.117 204C236.117 218.333 225.784 230.167 212.117 239.5C198.451 248.5 181.784 255.167 162.117 259.5C142.451 263.833 119.951 266 94.6172 266H63.1172V388H0.11719V46.5C14.7839 43.1667 30.9505 41 48.6172 40C66.6172 38.6666 83.1172 38 98.1172 38ZM102.617 92.5C86.6172 92.5 73.4505 93 63.1172 94V212H93.6172C123.951 212 147.284 207.833 163.617 199.5C179.951 190.833 188.117 174.667 188.117 151C188.117 139.667 185.951 130.167 181.617 122.5C177.284 114.833 171.284 108.833 163.617 104.5C155.951 100.167 146.784 97.1666 136.117 95.5C125.784 93.5 114.617 92.5 102.617 92.5ZM536.352 257C536.352 277.667 533.352 296.5 527.352 313.5C521.352 330.5 512.852 345 501.852 357C490.852 369 477.518 378.333 461.852 385C446.518 391.667 429.518 395 410.852 395C392.185 395 375.185 391.667 359.852 385C344.518 378.333 331.352 369 320.352 357C309.352 345 300.685 330.5 294.352 313.5C288.352 296.5 285.352 277.667 285.352 257C285.352 236.333 288.352 217.667 294.352 201C300.685 184 309.352 169.5 320.352 157.5C331.685 145.5 345.018 136.333 360.352 130C375.685 123.333 392.518 120 410.852 120C429.185 120 446.018 123.333 461.352 130C477.018 136.333 490.352 145.5 501.352 157.5C512.352 169.5 520.852 184 526.852 201C533.185 217.667 536.352 236.333 536.352 257ZM474.352 257C474.352 231 468.685 210.5 457.352 195.5C446.352 180.167 430.852 172.5 410.852 172.5C390.852 172.5 375.185 180.167 363.852 195.5C352.852 210.5 347.352 231 347.352 257C347.352 283.333 352.852 304.167 363.852 319.5C375.185 334.833 390.852 342.5 410.852 342.5C430.852 342.5 446.352 334.833 457.352 319.5C468.685 304.167 474.352 283.333 474.352 257ZM747.68 181C742.68 179.333 735.68 177.667 726.68 176C718.013 174 707.846 173 696.18 173C689.513 173 682.346 173.667 674.68 175C667.346 176.333 662.18 177.5 659.18 178.5V388H598.68V139C610.346 134.667 624.846 130.667 642.18 127C659.846 123 679.346 121 700.68 121C704.68 121 709.346 121.333 714.68 122C720.013 122.333 725.346 123 730.68 124C736.013 124.667 741.18 125.667 746.18 127C751.18 128 755.18 129 758.18 130L747.68 181ZM797.34 57.5L857.84 47.5V126.5H950.84V177H857.84V283.5C857.84 304.5 861.173 319.5 867.84 328.5C874.507 337.5 885.84 342 901.84 342C912.84 342 922.507 340.833 930.84 338.5C939.507 336.167 946.34 334 951.34 332L961.34 380C954.34 383 945.173 386 933.84 389C922.507 392.333 909.173 394 893.84 394C875.173 394 859.507 391.5 846.84 386.5C834.507 381.5 824.673 374.333 817.34 365C810.007 355.333 804.84 343.833 801.84 330.5C798.84 316.833 797.34 301.333 797.34 284V57.5ZM1239.96 257C1239.96 277.667 1236.96 296.5 1230.96 313.5C1224.96 330.5 1216.46 345 1205.46 357C1194.46 369 1181.13 378.333 1165.46 385C1150.13 391.667 1133.13 395 1114.46 395C1095.8 395 1078.8 391.667 1063.46 385C1048.13 378.333 1034.96 369 1023.96 357C1012.96 345 1004.3 330.5 997.965 313.5C991.965 296.5 988.965 277.667 988.965 257C988.965 236.333 991.965 217.667 997.965 201C1004.3 184 1012.96 169.5 1023.96 157.5C1035.3 145.5 1048.63 136.333 1063.96 130C1079.3 123.333 1096.13 120 1114.46 120C1132.8 120 1149.63 123.333 1164.96 130C1180.63 136.333 1193.96 145.5 1204.96 157.5C1215.96 169.5 1224.46 184 1230.46 201C1236.8 217.667 1239.96 236.333 1239.96 257ZM1177.96 257C1177.96 231 1172.3 210.5 1160.96 195.5C1149.96 180.167 1134.46 172.5 1114.46 172.5C1094.46 172.5 1078.8 180.167 1067.46 195.5C1056.46 210.5 1050.96 231 1050.96 257C1050.96 283.333 1056.46 304.167 1067.46 319.5C1078.8 334.833 1094.46 342.5 1114.46 342.5C1134.46 342.5 1149.96 334.833 1160.96 319.5C1172.3 304.167 1177.96 283.333 1177.96 257ZM1408.79 -1.14441e-05C1422.79 -1.14441e-05 1435.13 1.33332 1445.79 4C1456.46 6.33332 1464.46 8.49998 1469.79 10.5L1458.29 60.5C1452.63 57.8333 1445.96 55.6666 1438.29 54C1430.96 52.3333 1422.96 51.5 1414.29 51.5C1404.63 51.5 1396.46 53 1389.79 56C1383.13 58.6667 1377.79 62.5 1373.79 67.5C1369.79 72.5 1366.96 78.6666 1365.29 86C1363.63 93 1362.79 100.667 1362.79 109V126.5H1457.79V177H1362.79V388H1302.29V108C1302.29 74.3333 1311.13 48 1328.79 29C1346.46 9.66665 1373.13 -1.14441e-05 1408.79 -1.14441e-05ZM1734.11 257C1734.11 277.667 1731.11 296.5 1725.11 313.5C1719.11 330.5 1710.61 345 1699.61 357C1688.61 369 1675.27 378.333 1659.61 385C1644.27 391.667 1627.27 395 1608.61 395C1589.94 395 1572.94 391.667 1557.61 385C1542.27 378.333 1529.11 369 1518.11 357C1507.11 345 1498.44 330.5 1492.11 313.5C1486.11 296.5 1483.11 277.667 1483.11 257C1483.11 236.333 1486.11 217.667 1492.11 201C1498.44 184 1507.11 169.5 1518.11 157.5C1529.44 145.5 1542.77 136.333 1558.11 130C1573.44 123.333 1590.27 120 1608.61 120C1626.94 120 1643.77 123.333 1659.11 130C1674.77 136.333 1688.11 145.5 1699.11 157.5C1710.11 169.5 1718.61 184 1724.61 201C1730.94 217.667 1734.11 236.333 1734.11 257ZM1672.11 257C1672.11 231 1666.44 210.5 1655.11 195.5C1644.11 180.167 1628.61 172.5 1608.61 172.5C1588.61 172.5 1572.94 180.167 1561.61 195.5C1550.61 210.5 1545.11 231 1545.11 257C1545.11 283.333 1550.61 304.167 1561.61 319.5C1572.94 334.833 1588.61 342.5 1608.61 342.5C1628.61 342.5 1644.11 334.833 1655.11 319.5C1666.44 304.167 1672.11 283.333 1672.11 257ZM1887.43 393C1869.43 392.667 1854.43 390.667 1842.43 387C1830.77 383.333 1821.43 378.167 1814.43 371.5C1807.43 364.5 1802.43 356 1799.43 346C1796.77 335.667 1795.43 324 1795.43 311V9.99998L1855.93 -1.14441e-05V299.5C1855.93 306.833 1856.43 313 1857.43 318C1858.77 323 1860.93 327.333 1863.93 331C1866.93 334.333 1870.93 337 1875.93 339C1881.27 340.667 1887.93 342 1895.93 343L1887.43 393ZM2005.87 388H1945.37V126.5H2005.87V388ZM2012.37 50C2012.37 61.3333 2008.7 70.3333 2001.37 77C1994.04 83.6666 1985.37 87 1975.37 87C1965.04 87 1956.2 83.6666 1948.87 77C1941.54 70.3333 1937.87 61.3333 1937.87 50C1937.87 38.3333 1941.54 29.1667 1948.87 22.5C1956.2 15.8333 1965.04 12.5 1975.37 12.5C1985.37 12.5 1994.04 15.8333 2001.37 22.5C2008.7 29.1667 2012.37 38.3333 2012.37 50ZM2319.55 257C2319.55 277.667 2316.55 296.5 2310.55 313.5C2304.55 330.5 2296.05 345 2285.05 357C2274.05 369 2260.72 378.333 2245.05 385C2229.72 391.667 2212.72 395 2194.05 395C2175.39 395 2158.39 391.667 2143.05 385C2127.72 378.333 2114.55 369 2103.55 357C2092.55 345 2083.89 330.5 2077.55 313.5C2071.55 296.5 2068.55 277.667 2068.55 257C2068.55 236.333 2071.55 217.667 2077.55 201C2083.89 184 2092.55 169.5 2103.55 157.5C2114.89 145.5 2128.22 136.333 2143.55 130C2158.89 123.333 2175.72 120 2194.05 120C2212.39 120 2229.22 123.333 2244.55 130C2260.22 136.333 2273.55 145.5 2284.55 157.5C2295.55 169.5 2304.05 184 2310.05 201C2316.39 217.667 2319.55 236.333 2319.55 257ZM2257.55 257C2257.55 231 2251.89 210.5 2240.55 195.5C2229.55 180.167 2214.05 172.5 2194.05 172.5C2174.05 172.5 2158.39 180.167 2147.05 195.5C2136.05 210.5 2130.55 231 2130.55 257C2130.55 283.333 2136.05 304.167 2147.05 319.5C2158.39 334.833 2174.05 342.5 2194.05 342.5C2214.05 342.5 2229.55 334.833 2240.55 319.5C2251.89 304.167 2257.55 283.333 2257.55 257Z" fill="white"/>
</svg>
